<?xml version="1.0" encoding="UTF-8" standalone="no"?>
<svg
   id="logo-26"
   width="420"
   height="118.18666"
   viewBox="0 0 420 118.18666"
   fill="none"
   version="1.1"
   sodipodi:docname="logo-wide.svg"
   inkscape:version="1.1.2 (0a00cf5339, 2022-02-04, custom)"
   xmlns:inkscape="http://www.inkscape.org/namespaces/inkscape"
   xmlns:sodipodi="http://sodipodi.sourceforge.net/DTD/sodipodi-0.dtd"
   xmlns="http://www.w3.org/2000/svg"
   xmlns:svg="http://www.w3.org/2000/svg">
  <defs
     id="defs101" />
  <sodipodi:namedview
     id="namedview99"
     pagecolor="#ffffff"
     bordercolor="#666666"
     borderopacity="1.0"
     inkscape:pageshadow="2"
     inkscape:pageopacity="0.0"
     inkscape:pagecheckerboard="0"
     showgrid="false"
     units="px"
     width="40px"
     inkscape:zoom="1"
     inkscape:cx="35.5"
     inkscape:cy="-109"
     inkscape:window-width="1920"
     inkscape:window-height="1007"
     inkscape:window-x="0"
     inkscape:window-y="0"
     inkscape:window-maximized="1"
     inkscape:current-layer="logo-26"
     lock-margins="false"
     fit-margin-top="10"
     fit-margin-left="10"
     fit-margin-right="10"
     fit-margin-bottom="10" />
  <path
     d="M 39.931958,103.85183 29.998345,86.646277 44.576486,61.46559 53.840191,77.51207 108.52632,77.48275 93.008824,104.08944 Z"
     class="ccompli2"
     fill="#ffad64"
     id="path72"
     style="stroke-width:3.0542" />
  <path
     d="M 118.29152,60.398146 108.35803,77.603391 79.261854,77.569184 88.526475,61.523009 61.158062,14.17812 91.958789,14.313268 Z"
     class="ccompli1"
     fill="#add4d3"
     id="path74"
     style="stroke-width:3.0542" />
  <path
     d="M 41.463031,14.086494 H 61.330319 L 75.848476,39.302151 57.319539,39.301235 30.002223,86.675597 14.718745,59.933907 Z"
     class="ccustom"
     fill="#fb8351"
     id="path76"
     style="stroke-width:3.0542" />
  <path
     fill-rule="evenodd"
     clip-rule="evenodd"
     d="M 63.752303,10.102774 63.693051,10 H 39.115875 L 10,59.913138 l 19.986525,34.970631 0.02453,-0.04245 7.555733,13.086961 57.783699,0.25838 20.292443,-34.794402 h -0.13501 L 123.00416,60.40853 94.336181,10.236945 Z m 19.011806,33.285902 h 0.153321 l -14.447299,-25.091749 21.110961,0.09257 23.997488,41.997956 -7.5112,13.010297 -19.684345,0.01038 6.863101,-11.886655 z M 58.747379,18.173232 68.598408,35.215016 54.958945,35.214711 31.60791,75.71009 30.015082,78.461622 19.437978,59.954676 43.810492,18.173232 Z m -9.47139,43.258456 10.40445,-18.043623 13.643127,6.11e-4 10.483248,18.135249 -6.864628,11.889404 -20.742623,0.0113 z m -14.549065,25.231082 3.958309,-6.864323 5.886366,-10.167749 6.910136,11.969729 20.739569,-0.0113 -0.0336,0.05803 29.159096,0.03451 L 90.667773,99.992534 42.297741,99.77599 Z"
     class="cneutral"
     fill="#333237"
     id="path78"
     style="stroke-width:3.0542" />
  <path
     d="m 130.68413,26.850622 h 13.53515 l 11.9401,56.829405 11.98567,-56.829405 h 13.53515 l -16.17838,68.040339 h -18.63931 z"
     style="font-weight:bold;font-size:93.3333px;line-height:1.25;font-family:Hack;-inkscape-font-specification:'Hack Bold';fill:#333237"
     id="path46949" />
  <path
     d="m 212.35076,96.212575 q -6.15234,0 -10.57291,-2.278645 -4.375,-2.324218 -7.24609,-6.608071 -6.0612,-8.932288 -6.0612,-26.386708 0,-17.363275 6.0612,-26.432282 3.14453,-4.648436 7.70182,-6.744789 4.55729,-2.141926 10.11718,-2.141926 11.80338,0 17.91015,8.932288 6.01562,8.932288 6.01562,26.386709 0,17.363274 -6.01562,26.341136 -2.91667,4.329425 -7.38281,6.653643 -4.42057,2.278645 -10.52734,2.278645 z m 0,-12.076819 q 5.19531,0 7.5651,-5.51432 2.36979,-5.33203 2.36979,-17.727858 0,-12.350256 -2.36979,-17.682285 -2.36979,-5.514321 -7.5651,-5.514321 -5.10416,0 -7.51953,5.514321 -2.36979,5.332029 -2.36979,17.682285 0,12.395828 2.36979,17.727858 2.36979,5.51432 7.51953,5.51432 z"
     style="font-weight:bold;font-size:93.3333px;line-height:1.25;font-family:Hack;-inkscape-font-specification:'Hack Bold';fill:#333237"
     id="path46951" />
  <path
     d="m 250.72314,26.850622 h 13.44401 v 56.191385 h 28.7565 v 11.848954 h -42.20051 z"
     style="font-weight:bold;font-size:93.3333px;line-height:1.25;font-family:Hack;-inkscape-font-specification:'Hack Bold';fill:#333237"
     id="path46953" />
  <path
     d="M 318.03432,38.60843 H 300.76219 V 26.850622 h 47.98826 V 38.60843 h -17.27213 v 56.282531 h -13.444 z"
     style="font-weight:bold;font-size:93.3333px;line-height:1.25;font-family:Hack;-inkscape-font-specification:'Hack Bold';fill:#add4d3"
     id="path46955" />
  <path
     d="M 357.13586,83.771173 387.71527,38.699576 H 358.13846 V 26.850622 h 46.02863 v 11.119787 l -31.53645,45.071598 h 32.17447 v 11.848954 h -47.66925 z"
     style="font-weight:bold;font-size:93.3333px;line-height:1.25;font-family:Hack;-inkscape-font-specification:'Hack Bold';fill:#add4d3"
     id="path46957" />
  <path
     style="fill:#f9f9f9;fill-opacity:1;stroke:#333237;stroke-width:0.449422"
     d="M 29.111072,92.696556 C 24.310199,84.352355 18.115339,73.571177 15.344716,68.738381 l -5.037495,-8.7869 14.46875,-24.807389 14.468751,-24.807388 27.454582,0.01555 27.454588,0.01555 14.119338,24.779848 c 7.76563,13.628917 14.1185,24.997911 14.11748,25.264432 -0.002,0.509815 -7.755,14.14809 -19.82013,34.865361 l -7.197587,12.359105 -28.76653,0.11564 -28.76653,0.11565 z m 67.120825,-1.688618 c 2.908317,-4.943641 5.299013,-9.138419 5.312653,-9.321729 0.0137,-0.183315 -11.236074,-0.385555 -24.999369,-0.449422 L 51.521013,81.120656 48.266214,75.514419 c -1.790139,-3.08343 -3.427699,-5.663871 -3.639022,-5.734309 -0.30069,-0.10023 -9.294862,14.892323 -9.951956,16.589097 -0.08523,0.220087 1.520345,3.315709 3.567943,6.879167 3.375471,5.874367 3.85129,6.495522 5.098603,6.655934 0.756634,0.09731 11.776675,0.157832 24.488983,0.134502 l 23.113283,-0.04243 5.287849,-8.988438 z m -53.474252,-34.14652 12.29654,-21.346496 6.853684,-0.0053 c 3.769526,-0.0029 6.844588,-0.156975 6.833469,-0.342362 -0.0111,-0.185386 -2.1929,-4.078504 -4.848408,-8.651372 L 59.064736,18.201589 H 51.284341 43.503944 L 31.817406,38.200864 c -6.427596,10.999602 -11.886613,20.424297 -12.131148,20.94377 -0.372864,0.792084 0.409385,2.438056 4.847615,10.200116 2.910724,5.090589 5.435102,9.167317 5.609729,9.059393 0.174627,-0.107929 5.850946,-9.802152 12.614043,-21.542725 z m 37.845776,10.765529 3.510255,-6.078242 -5.295507,-9.202101 -5.295507,-9.2021 h -7.008218 -7.008218 l -5.26908,9.156177 -5.269081,9.156175 3.492482,6.111266 3.492482,6.111262 10.570066,0.0129 10.570071,0.0129 3.510255,-6.078247 z m 29.055529,0.169742 c 1.85386,-3.23892 3.54599,-6.251845 3.76027,-6.695384 0.30103,-0.623097 -2.35555,-5.615765 -11.68497,-21.960265 l -12.074578,-21.153823 -10.67377,-0.0052 c -5.870574,-0.0028 -10.673771,0.123987 -10.673771,0.281844 0,0.157858 3.261406,5.972254 7.247571,12.92088 3.986162,6.948627 9.527287,16.610156 12.313608,21.470066 l 5.066032,8.8362 -3.134915,5.48599 c -1.724207,3.017298 -3.24217,5.765486 -3.373253,6.107078 -0.198492,0.517262 1.441296,0.619451 9.809388,0.611308 l 10.047718,-0.0098 z"
     id="path9216" />
  <path
     style="fill:#f9f9f9;fill-opacity:1;stroke:#333237;stroke-width:0.449422"
     d="m 146.56995,92.69327 c -0.25603,-1.174114 -3.81198,-16.189534 -7.90213,-33.367604 -4.09014,-17.178068 -7.43662,-31.486538 -7.43662,-31.796601 0,-0.425815 1.56696,-0.563034 6.40426,-0.560822 l 6.40426,0.0029 5.79674,27.748875 c 5.31907,25.462283 6.42237,30.362627 6.55112,29.09714 0.0251,-0.247182 2.7215,-13.089413 5.99189,-28.538291 l 5.94616,-28.08887 6.54477,-0.123937 6.54477,-0.123936 -6.60796,27.763384 c -3.63438,15.269862 -7.26332,30.544183 -8.06432,33.942936 l -1.45636,6.179551 h -9.12554 -9.12554 z"
     id="path9255" />
  <path
     style="fill:#f9f9f9;fill-opacity:1;stroke:#333237;stroke-width:0.449422"
     d="m 208.53177,95.714217 c -13.00903,-2.033252 -19.70933,-13.76671 -19.76069,-34.604626 -0.0565,-22.938161 8.01319,-35.061498 23.35443,-35.085885 4.77901,-0.0076 7.537,0.5935 10.8672,2.368477 6.80575,3.627425 11.09677,11.681444 12.56932,23.591957 0.6335,5.124018 0.2416,18.268209 -0.66843,22.4184 -1.95517,8.916589 -5.6212,15.239866 -10.69111,18.440361 -3.86005,2.436739 -10.5769,3.667458 -15.67072,2.871316 z m 5.94088,-11.692098 c 5.36753,-1.490705 7.38638,-6.631476 7.84987,-19.98875 0.63753,-18.37306 -2.41586,-26.410334 -10.03341,-26.410334 -6.56357,0 -9.41335,5.724207 -9.90862,19.90297 -0.55444,15.872567 1.79688,24.371351 7.27483,26.294688 2.19497,0.77066 2.69278,0.791477 4.81733,0.201426 z"
     id="path9294" />
  <path
     style="fill:#f9f9f9;fill-opacity:1;stroke:#333237;stroke-width:0.449422"
     d="M 250.77743,60.89667 V 26.965315 h 6.51662 6.51662 v 28.08887 28.08887 h 14.3815 14.3815 v 5.842485 5.842484 h -20.89812 -20.89812 z"
     id="path9333" />
</svg>
