<?xml version="1.0" encoding="UTF-8" standalone="no"?>
<svg
   id="logo-26"
   width="38.999519"
   height="36.148041"
   viewBox="0 0 38.999519 36.14804"
   fill="none"
   version="1.1"
   sodipodi:docname="logoipsum-logo-26-img.svg"
   inkscape:version="1.1.2 (0a00cf5339, 2022-02-04, custom)"
   xmlns:inkscape="http://www.inkscape.org/namespaces/inkscape"
   xmlns:sodipodi="http://sodipodi.sourceforge.net/DTD/sodipodi-0.dtd"
   xmlns="http://www.w3.org/2000/svg"
   xmlns:svg="http://www.w3.org/2000/svg">
  <defs
     id="defs101" />
  <sodipodi:namedview
     id="namedview99"
     pagecolor="#ffffff"
     bordercolor="#666666"
     borderopacity="1.0"
     inkscape:pageshadow="2"
     inkscape:pageopacity="0.0"
     inkscape:pagecheckerboard="0"
     showgrid="false"
     units="px"
     fit-margin-top="2"
     fit-margin-left="1"
     fit-margin-right="1"
     fit-margin-bottom="2"
     width="40px"
     inkscape:zoom="12.586957"
     inkscape:cx="17.279793"
     inkscape:cy="18.908463"
     inkscape:window-width="1920"
     inkscape:window-height="1007"
     inkscape:window-x="1920"
     inkscape:window-y="0"
     inkscape:window-maximized="1"
     inkscape:current-layer="logo-26" />
  <path
     d="m 10.80025,32.72874 -3.25244,-5.6334 4.77314,-8.2446 3.0331,5.2539 17.9052,-0.0096 -5.0807,8.7115 z"
     class="ccompli2"
     fill="#ffad64"
     id="path72" />
  <path
     d="m 36.45655,18.50124 -3.2524,5.6333 -9.5266,-0.0112 3.0334,-5.2538 -8.9609,-15.50155 10.0847,0.04425 z"
     class="ccompli1"
     fill="#add4d3"
     id="path74" />
  <path
     d="m 11.30155,3.33799 h 6.5049 l 4.7535,8.25605 -6.0667,-3e-4 -8.94417,15.5112 -5.00408,-8.7557 z"
     class="ccustom"
     fill="#fb8351"
     id="path76" />
  <path
     fill-rule="evenodd"
     clip-rule="evenodd"
     d="M 18.59945,2.03365 18.58005,2 h -8.047 L 1,18.34244 l 6.54394,11.45 0.008,-0.0139 2.47388,4.2849 18.9194,0.0846 6.6441,-11.3923 h -0.0442 l 2.4544,-4.2511 -9.3864,-16.42706 z m 6.2248,10.89839 h 0.0502 l -4.7303,-8.21548 6.9121,0.03031 7.8572,13.75087 -2.4593,4.2598 -6.445,0.0034 2.2471,-3.8919 z m -7.8635,-8.25598 3.2254,5.57978 -4.4658,-10e-5 -7.64554,13.2589 -0.52152,0.9009 -3.46313,-6.0595 7.97999,-13.67998 z m -3.1011,14.16358 3.4066,-5.9078 4.467,2e-4 3.4324,5.9378 -2.2476,3.8928 -6.7915,0.0037 z m -4.76362,8.2611 1.29602,-2.2475 1.9273,-3.3291 2.2625,3.9191 6.7905,-0.0037 -0.011,0.019 9.5472,0.0113 -3.4965,5.9953 -15.8372,-0.0709 z"
     class="cneutral"
     fill="#333237"
     id="path78" />
</svg>
