<?xml version="1.0" encoding="UTF-8" standalone="no"?>
<svg
   id="logo-26"
   width="420"
   height="118.18666"
   viewBox="0 0 420 118.18666"
   fill="none"
   version="1.1"
   sodipodi:docname="logo-wide.svg"
   inkscape:version="1.1.2 (0a00cf5339, 2022-02-04, custom)"
   xmlns:inkscape="http://www.inkscape.org/namespaces/inkscape"
   xmlns:sodipodi="http://sodipodi.sourceforge.net/DTD/sodipodi-0.dtd"
   xmlns="http://www.w3.org/2000/svg"
   xmlns:svg="http://www.w3.org/2000/svg">
  <defs
     id="defs101" />
  <sodipodi:namedview
     id="namedview99"
     pagecolor="#ffffff"
     bordercolor="#666666"
     borderopacity="1.0"
     inkscape:pageshadow="2"
     inkscape:pageopacity="0.0"
     inkscape:pagecheckerboard="0"
     showgrid="false"
     units="px"
     width="40px"
     inkscape:zoom="1.5733696"
     inkscape:cx="222.77029"
     inkscape:cy="18.431779"
     inkscape:window-width="1920"
     inkscape:window-height="1007"
     inkscape:window-x="1920"
     inkscape:window-y="0"
     inkscape:window-maximized="1"
     inkscape:current-layer="logo-26"
     lock-margins="false"
     fit-margin-top="10"
     fit-margin-left="10"
     fit-margin-right="10"
     fit-margin-bottom="10" />
  <path
     d="M 39.931958,103.85183 29.998345,86.646277 44.576486,61.46559 53.840191,77.51207 108.52632,77.48275 93.008824,104.08944 Z"
     class="ccompli2"
     fill="#ffad64"
     id="path72"
     style="stroke-width:3.0542" />
  <path
     d="M 118.29152,60.398146 108.35803,77.603391 79.261854,77.569184 88.526475,61.523009 61.158062,14.17812 91.958789,14.313268 Z"
     class="ccompli1"
     fill="#add4d3"
     id="path74"
     style="stroke-width:3.0542" />
  <path
     d="M 41.463031,14.086494 H 61.330319 L 75.848476,39.302151 57.319539,39.301235 30.002223,86.675597 14.718745,59.933907 Z"
     class="ccustom"
     fill="#fb8351"
     id="path76"
     style="stroke-width:3.0542" />
  <path
     fill-rule="evenodd"
     clip-rule="evenodd"
     d="M 63.752303,10.102774 63.693051,10 H 39.115875 L 10,59.913138 l 19.986525,34.970631 0.02453,-0.04245 7.555733,13.086961 57.783699,0.25838 20.292443,-34.794402 h -0.13501 L 123.00416,60.40853 94.336181,10.236945 Z m 19.011806,33.285902 h 0.153321 l -14.447299,-25.091749 21.110961,0.09257 23.997488,41.997956 -7.5112,13.010297 -19.684345,0.01038 6.863101,-11.886655 z M 58.747379,18.173232 68.598408,35.215016 54.958945,35.214711 31.60791,75.71009 30.015082,78.461622 19.437978,59.954676 43.810492,18.173232 Z m -9.47139,43.258456 10.40445,-18.043623 13.643127,6.11e-4 10.483248,18.135249 -6.864628,11.889404 -20.742623,0.0113 z m -14.549065,25.231082 3.958309,-6.864323 5.886366,-10.167749 6.910136,11.969729 20.739569,-0.0113 -0.0336,0.05803 29.159096,0.03451 L 90.667773,99.992534 42.297741,99.77599 Z"
     class="cneutral"
     fill="#333237"
     id="path78"
     style="stroke-width:3.0542" />
  <g
     aria-label="VOLTZ"
     id="text1726"
     style="font-size:93.3333px;line-height:1.25;fill:#000000">
    <path
       d="m 130.68413,26.850622 h 13.53515 l 11.9401,56.829405 11.98567,-56.829405 h 13.53515 l -16.17838,68.040339 h -18.63931 z"
       style="font-weight:bold;font-family:Hack;-inkscape-font-specification:'Hack Bold';fill:#333237"
       id="path46949" />
    <path
       d="m 212.35076,96.212575 q -6.15234,0 -10.57291,-2.278645 -4.375,-2.324218 -7.24609,-6.608071 -6.0612,-8.932288 -6.0612,-26.386708 0,-17.363275 6.0612,-26.432282 3.14453,-4.648436 7.70182,-6.744789 4.55729,-2.141926 10.11718,-2.141926 11.80338,0 17.91015,8.932288 6.01562,8.932288 6.01562,26.386709 0,17.363274 -6.01562,26.341136 -2.91667,4.329425 -7.38281,6.653643 -4.42057,2.278645 -10.52734,2.278645 z m 0,-12.076819 q 5.19531,0 7.5651,-5.51432 2.36979,-5.33203 2.36979,-17.727858 0,-12.350256 -2.36979,-17.682285 -2.36979,-5.514321 -7.5651,-5.514321 -5.10416,0 -7.51953,5.514321 -2.36979,5.332029 -2.36979,17.682285 0,12.395828 2.36979,17.727858 2.36979,5.51432 7.51953,5.51432 z"
       style="font-weight:bold;font-family:Hack;-inkscape-font-specification:'Hack Bold';fill:#333237"
       id="path46951" />
    <path
       d="m 250.72314,26.850622 h 13.44401 v 56.191385 h 28.7565 v 11.848954 h -42.20051 z"
       style="font-weight:bold;font-family:Hack;-inkscape-font-specification:'Hack Bold';fill:#333237"
       id="path46953" />
    <path
       d="M 318.03432,38.60843 H 300.76219 V 26.850622 h 47.98826 V 38.60843 h -17.27213 v 56.282531 h -13.444 z"
       style="font-weight:bold;font-family:Hack;-inkscape-font-specification:'Hack Bold';fill:#add4d3"
       id="path46955" />
    <path
       d="M 357.13586,83.771173 387.71527,38.699576 H 358.13846 V 26.850622 h 46.02863 v 11.119787 l -31.53645,45.071598 h 32.17447 v 11.848954 h -47.66925 z"
       style="font-weight:bold;font-family:Hack;-inkscape-font-specification:'Hack Bold';fill:#add4d3"
       id="path46957" />
  </g>
</svg>
